<?xml version="1.0" encoding="UTF-8"?>
<svg width="176px" height="32px" viewBox="0 0 176 32" version="1.1" xmlns="http://www.w3.org/2000/svg" xmlns:xlink="http://www.w3.org/1999/xlink">
    <!-- Generator: Sketch 52.6 (67491) - http://www.bohemiancoding.com/sketch -->
    <title>Group 5</title>
    <desc>Created with Sketch.</desc>
    <g id="Mocks" stroke="none" stroke-width="1" fill="none" fill-rule="evenodd">
        <g id="Home" transform="translate(-41.000000, -36.000000)" fill="#FA8F84">
            <g id="Navigation" transform="translate(40.000000, 28.000000)">
                <g id="Group-5">
                    <path d="M16.812484,29.4375024 C16.7187341,30.2187517 16.0624847,31.000001 15.2812354,31.3750006 C14.5312361,31.7500002 13.2499874,31.4062506 12.624988,31.000001 C12.2812383,30.7187512 11.9687386,30.2812516 11.7499888,29.7500021 C10.9999895,27.6875041 9.81249064,25.0937566 9.06249136,24.0000076 C8.40624198,22.9687586 7.81249255,23.2500083 7.93749243,24.5937571 C8.21874216,27.6875041 8.99999142,28.4375034 7.78124258,30.3125016 C7.53124282,30.7812512 7.28124306,31.0312509 7.15624318,31.1562508 C6.62499368,31.8125002 5.99999428,32.0937499 5.40624484,32.1249999 C5.3437449,32.1562499 5.28124496,32.1562499 5.21874502,32.1562499 C4.24999595,32.1562499 3.21874693,31.4375005 2.56249756,30.7812512 C0.874999166,28.6875032 1.4687486,27.3125045 1.24999881,20.6562608 C1.24999881,18.6562627 1.18749887,16.1875151 1.84374824,13.9375172 C2.18749791,12.8125183 2.87499726,11.5625195 3.90624627,10.1875208 C4.74999547,9.40627155 6.12499416,8.93752199 7.59374276,8.84377208 C7.74999261,8.81252211 7.93749243,8.81252211 8.09374228,8.81252211 C9.06249136,8.81252211 10.2499902,8.96877196 11.1562394,9.50002146 C12.9374877,10.5000205 14.9687357,12.3125188 15.2187355,14.4687667 C15.3749853,15.7500155 15.1249856,16.0937652 14.687486,17.4375139 C14.687486,17.4687639 14.687486,17.4687639 14.656236,17.5000138 C14.2499864,18.375013 13.593737,19.1562622 12.8749877,19.8750116 C14.9687357,23.0312586 16.812484,26.750005 16.812484,29.4375024 Z M9.62499082,13.8125173 C9.37499106,13.5937676 9.09374133,13.4375177 8.74999166,13.3125178 C8.65624174,13.2812679 8.53124186,13.2500179 8.43749195,13.2500179 C6.65624365,13.2500179 5.5624947,15.5625157 6.74999356,17.1250142 C6.96874335,17.4687639 7.43749291,17.6562637 8.09374228,17.7500136 L8.37499201,17.7500136 C9.62499082,17.7500136 10.2812402,16.7187646 10.2812402,15.4062658 C10.2812402,14.8750163 10.1249903,14.2812669 9.62499082,13.8125173 Z M19.6674984,18.0937633 C19.8862482,16.5937647 21.3862468,15.5937656 22.9799953,15.8750154 C24.354994,16.1562651 25.1674932,17.3750139 25.1362432,18.6562627 L25.1674932,19.6875117 C25.1362432,21.0625104 25.1362432,23.1250085 25.2612431,25.0937566 C25.386243,27.0625047 25.8237426,27.2500045 27.1674913,27.3750044 C28.54249,27.5000043 28.6674898,26.750005 28.6674898,25.2187565 C28.6987398,24.4375072 28.6674898,23.593758 28.6362399,22.6562589 C28.5737399,18.343763 28.0424904,15.7812655 31.698737,15.7812655 C33.1674856,15.7812655 33.761235,17.2500141 33.8862349,18.6250128 L34.0112347,20.2812612 L33.9799848,21.9687596 C33.8862349,23.7187579 33.761235,26.2500055 33.5424852,28.7187531 C33.2924854,31.1250008 33.3549854,31.2812507 31.9799867,31.5625004 C29.2612393,32.1249999 25.8862425,32.1249999 23.4487448,31.7187503 C20.9174972,31.3437506 19.8549983,27.6250042 19.5737485,24.1250075 C19.5112486,23.2812583 19.4799986,22.4687591 19.4799986,21.6562599 L19.4799986,20.7500107 C19.5112486,19.6562618 19.5737485,18.7812626 19.6674984,18.0937633 Z M49.6787363,27.2187546 C49.0849869,29.0625028 48.4599875,30.2812516 47.8037381,30.8750011 C47.1474887,31.4687505 46.4599894,31.7812502 45.6787401,31.8437501 C45.2724905,31.8750001 44.8662409,31.8750001 44.4287413,31.8437501 C43.9599918,31.8125002 43.4912422,31.8125002 43.0224927,31.8437501 C42.2412434,31.8437501 41.4287442,31.8750001 40.522495,31.9375001 L40.2724953,31.9375001 C38.6787468,31.9375001 37.3037481,30.7500012 37.2099982,28.7500031 C37.1787482,27.7500041 37.1787482,26.8750049 37.1474983,26.0937556 C37.1162483,24.9375067 37.0849983,23.7812578 37.1162483,22.6250089 C37.1474983,21.46876 37.1474983,20.3437611 37.1474983,19.1875122 L37.1474983,17.4375139 C37.1474983,16.312515 37.1162483,15.187516 37.0224984,14.0937671 C36.9912484,13.5625176 36.9912484,13.0000181 36.9912484,12.4687686 C36.9912484,11.7187693 37.1787482,10.9375201 37.5849978,10.2812707 C38.0849974,9.53127143 38.8037467,9.09377185 39.5849959,8.96877196 C39.7724958,8.93752199 39.9599956,8.90627202 40.1474954,8.90627202 C41.1787444,8.90627202 42.2724934,9.40627155 42.8662428,10.9062701 C43.4599922,12.4375187 43.2099925,14.6875165 43.2099925,16.8125145 C44.3662414,16.3437649 46.1787396,16.4375148 47.2724886,17.0625142 C49.3662366,18.0937633 50.2412358,20.3437611 50.2412358,22.9375086 L50.2412358,23.0937585 C50.2412358,24.3750073 50.053736,25.8125059 49.6787363,27.2187546 Z M46.1162397,23.1250085 C46.0224898,22.2812593 45.6787401,21.7187598 45.1787406,21.3437602 C44.741241,21.0000105 44.2724915,20.7812607 43.8037419,20.7187608 C43.3349924,20.6250108 43.0537426,20.5937609 42.9912427,20.5937609 L42.9599927,20.5937609 C41.8349938,20.5937609 41.4599941,22.2500093 41.4599941,23.5000081 C41.4599941,23.7187579 41.4599941,23.9062577 41.4912441,24.1250075 C41.616244,25.2812564 41.9912436,26.4375053 42.647493,26.9687548 C42.8662428,27.1250046 43.0849926,27.2500045 43.3662423,27.2812545 C43.4287423,27.3125045 43.4912422,27.3125045 43.5537421,27.3125045 C43.7724919,27.3125045 43.9912417,27.2500045 44.2099915,27.1562546 C46.1162397,26.3750054 46.1162397,24.4062572 46.1162397,23.2500083 L46.1162397,23.1250085 Z M66.1274856,20.7187608 C66.2212355,21.6562599 66.3149854,27.2812545 66.2837355,28.2500036 C66.1587356,31.6875003 66.1274856,33.8437482 63.564988,36.3437459 C61.4399901,38.4374939 58.1899932,39.6562427 55.5024957,37.8437444 C54.158747,36.9374953 52.9712481,35.5312466 54.7837464,34.3749977 C55.5962456,33.8749982 56.5024948,33.9062482 57.3774939,34.2499979 C58.6274928,34.7812473 60.471241,35.093747 61.1899903,33.4999986 C61.4399901,32.9062491 61.1899903,32.03125 61.0649904,31.6250004 C60.0337414,32.2812497 58.2212431,31.5937504 57.1587442,31.3125007 C52.6899984,30.1562518 52.3462487,21.7812597 53.3774978,18.5937628 C53.8149973,17.2187641 54.5962466,16.1875151 56.1274951,16.4687648 C57.4087439,16.7187646 58.2212431,17.8750135 58.1899932,19.1250123 C58.2524931,19.1875122 57.4399939,26.0937556 58.2837431,27.0000048 C58.8774925,27.5625042 61.2212403,27.6250042 61.56499,27.0937547 C62.1274894,26.2812555 60.6274908,18.1562632 61.7212398,17.1250142 C63.0649885,15.9062653 64.5024872,15.9375153 65.5337362,17.8437635 C65.9712358,18.6250128 66.0649857,19.8750116 66.1274856,20.7187608 Z" id="Ruby"></path>
                    <path d="M90.749985,21.56251 C91.812484,20.8750106 93.2812326,21.1562603 94.0937318,22.1250094 C95.0624809,23.2812583 95.1874807,24.9062568 94.7812311,26.3125054 C93.9999819,29.2187527 91.2187345,30.906251 88.3749872,31.5625004 C85.2812402,32.2812497 81.8437435,32.2187498 79.1249961,30.5312514 C77.8749973,29.7500021 76.8124983,28.6562532 76.2499988,27.2812545 C75.6249994,25.687506 75.5312495,23.9375077 75.6874993,22.2812593 L75.7812493,21.53126 C76.3437487,17.4687639 78.3749968,13.8750173 81.7499936,11.5625195 C84.6562408,9.59377137 88.8437368,8.34377256 92.0312338,10.4375206 C93.1562327,11.1562699 94.1249818,12.5000186 94.0624818,13.9375172 C93.9999819,15.3125159 93.0624828,16.3750149 91.812484,16.8125145 C90.3749853,17.281264 88.8124868,15.9375153 87.3437382,15.9062653 C85.7812397,15.8750154 83.1249923,17.1875141 82.374993,18.8125126 C81.7187436,20.2500112 81.281244,23.656258 82.1874931,24.9375067 C83.1249923,26.2500055 86.6874889,26.8750049 88.1249875,25.5625061 C89.0624866,24.7187569 89.656236,22.2500093 90.749985,21.56251 Z M110.511236,30.6562513 C110.354986,31.8750001 108.948738,31.7187503 108.198738,31.8125002 C107.854989,31.8437501 107.448739,31.8437501 106.979989,31.8437501 C106.63624,31.8437501 106.41749,31.6562503 106.26124,31.3750006 C106.04249,31.000001 105.97999,30.4062515 106.01124,29.7500021 L106.26124,26.750005 C106.38624,25.4062563 106.10499,23.7500079 105.604991,22.5000091 C105.511241,22.2187593 105.354991,22.0625095 105.136241,22.0000095 C104.729992,21.8437597 103.854992,21.4062601 103.698743,22.0000095 C103.604993,22.3125092 103.229993,24.7187569 103.198743,25.1250066 C103.198743,27.0625047 102.979993,29.2187527 102.542494,30.4062515 C102.167494,31.3750006 101.542495,31.4687505 100.542496,31.8125002 C100.292496,31.8750001 100.042496,31.9062501 99.7924963,31.9062501 C99.6049965,31.9062501 99.4174966,31.8750001 99.2299968,31.8437501 C98.3237477,31.6250004 97.8549981,30.968751 97.7612482,30.3750015 C97.6049984,29.2812526 97.3549986,23.656258 97.3549986,21.8125097 C97.3549986,19.406262 97.4174985,15.9375153 97.9174981,12.7812683 C98.1362479,11.6250194 98.2612477,10.1250209 99.2924968,9.34377161 C99.7612463,9.00002193 100.292496,8.84377208 100.886245,8.84377208 L101.229995,8.84377208 C102.604994,9.00002193 102.979993,10.3437707 103.198743,11.2187698 C103.636243,13.3125178 103.823742,15.0000162 103.511243,16.8125145 C105.011241,15.5625157 106.07374,15.5625157 108.042488,16.0625152 C109.636237,16.4687648 110.073736,18.5000129 110.448736,19.8437616 C111.073736,22.1562594 110.948736,27.781254 110.511236,30.6562513 Z M117.584995,26.1250056 C117.678745,26.9062549 117.959995,27.7500041 118.741244,28.0000038 C123.272489,29.4687524 122.36624,25.4375063 124.584988,26.2812555 C125.459987,26.5625052 125.991237,27.3437544 126.116237,28.2187536 C126.428736,30.3125016 124.584988,31.2187507 122.74124,31.8125002 C120.553742,32.4999995 118.241244,32.0624999 116.522496,30.8750011 C115.647497,30.3437516 114.834997,29.6250023 114.303748,28.7812531 C113.647499,27.8750039 113.397499,26.8125049 113.272499,25.718756 C113.241249,25.3125064 113.241249,24.9375067 113.241249,24.5312571 C113.241249,23.0000086 113.428749,21.0625104 114.553748,19.0312624 C115.647497,17.2500141 117.334995,15.9687653 119.491243,15.7500155 C120.772492,15.4687658 122.99124,16.1875151 124.272488,17.0625142 C125.053738,17.5937637 125.928737,18.2500131 126.584986,19.9687615 C126.897486,20.7187608 127.053736,21.6875098 126.866236,22.3750092 C126.741236,23.2187584 126.209987,24.2500074 125.178738,24.5312571 C124.803738,24.656257 119.897493,24.9687567 118.522494,24.9062568 C118.366244,24.9062568 118.178744,24.9375067 118.084994,24.9687567 C117.491245,25.2500064 117.553745,25.6250061 117.584995,26.1250056 Z M119.866243,21.7500098 C120.741242,21.7500098 121.616241,21.7500098 122.49124,21.6250099 C122.99124,21.53126 123.241239,21.3437602 123.241239,21.0312605 C123.241239,20.9687605 123.209989,20.8750106 123.17874,20.7812607 C122.92874,19.8750116 122.27249,19.437512 121.428741,19.1875122 C121.022492,19.0625123 120.647492,19.0000124 120.272492,19.0000124 C119.209993,19.0000124 118.147494,20.0625114 118.147494,20.8125107 C118.147494,21.2187603 118.428744,21.7812597 119.022493,21.7812597 L119.053743,21.7812597 C119.366243,21.7812597 119.647493,21.7812597 119.866243,21.7500098 Z M129.502498,18.0937633 C129.721248,16.5937647 131.221246,15.5937656 132.814995,15.8750154 C134.189994,16.1562651 135.002493,17.3750139 134.971243,18.6562627 L135.002493,19.6875117 C134.971243,21.0625104 134.971243,23.1250085 135.096243,25.0937566 C135.221243,27.0625047 135.658742,27.2500045 137.002491,27.3750044 C138.37749,27.5000043 138.502489,26.750005 138.502489,25.2187565 C138.533739,24.4375072 138.502489,23.593758 138.471239,22.6562589 C138.40874,18.343763 137.87749,15.7812655 141.533737,15.7812655 C143.002485,15.7812655 143.596235,17.2500141 143.721234,18.6250128 L143.846234,20.2812612 L143.814984,21.9687596 C143.721234,23.7187579 143.596235,26.2500055 143.377485,28.7187531 C143.127485,31.1250008 143.189985,31.2812507 141.814986,31.5625004 C139.096239,32.1249999 135.721242,32.1249999 133.283744,31.7187503 C130.752497,31.3437506 129.689998,27.6250042 129.408748,24.1250075 C129.346248,23.2812583 129.314998,22.4687591 129.314998,21.6562599 L129.314998,20.7500107 C129.346248,19.6562618 129.408748,18.7812626 129.502498,18.0937633 Z M160.232485,29.3750025 C160.138735,29.7187522 160.076235,30.2187517 159.982485,30.8437511 C159.888736,31.4687505 159.607486,31.8125002 159.107486,31.8437501 C158.513737,31.8750001 158.044987,31.9375001 157.701238,31.96875 C157.326238,32 156.919988,32.03125 156.451239,32 C156.107489,32 155.919989,31.8125002 155.763739,31.5625004 C155.54499,31.1875008 155.48249,30.5625014 155.48249,29.937502 C155.48249,29.3437525 155.51374,28.7812531 155.60749,28.1875036 C155.70124,27.5937542 155.73249,27.1875046 155.763739,26.9687548 C155.794989,25.6250061 155.60749,23.3437583 155.10749,22.0937594 C154.88874,21.56251 153.294992,21.3125102 152.669992,21.3125102 C152.263743,21.3125102 151.919993,21.7500098 152.294993,26.4687553 C152.263743,27.1250046 152.263743,27.812504 152.326243,28.5312533 C152.419993,29.937502 151.919993,31.2187507 151.263744,31.5000005 C150.294995,32 149.576245,32.0937499 148.763746,31.96875 C147.294998,31.7187503 147.201248,30.3437516 147.138748,28.5312533 L146.888748,23.3437583 C146.888748,21.7812597 146.763748,20.8750106 146.888748,19.375012 C147.013748,18.2500131 147.169998,16.1562651 149.544995,15.9375153 C151.638743,15.8437654 153.701241,15.8750154 155.60749,16.1875151 C157.013738,16.4062649 158.044987,16.4375148 158.919986,17.9375134 C159.794986,19.437512 160.076235,20.7500107 160.326235,22.2500093 C160.451235,23.0000086 160.482485,28.0937537 160.232485,29.3750025 Z M176.899985,29.0000029 C176.806235,30.4687515 176.806235,31.7187503 176.587485,33.1874989 C176.462485,34.0312481 176.243736,35.4062468 175.743736,36.6562456 C175.368736,37.5624947 174.681237,38.3749939 173.774988,38.7499936 C172.806239,39.1562432 171.77499,39.312493 170.774991,39.312493 L170.181241,39.312493 C168.837493,39.312493 166.399995,39.4374929 165.524996,37.9374943 C164.993746,37.0312452 165.118746,36.3124959 165.399996,35.4062468 C165.649996,34.6249975 166.118745,33.9062482 167.087494,34.0312481 C167.618744,34.093748 168.212493,34.3124978 168.868743,34.7187474 C170.149991,35.4999967 171.58749,35.6874965 172.02499,34.3124978 C172.462489,32.9374991 172.493739,32.5312495 172.493739,31.000001 C171.33749,31.6562503 169.931242,32.03125 168.556243,31.9375001 C165.524996,31.6875003 163.337498,29.5937523 162.868748,26.8125049 C162.806248,26.3750054 162.774998,25.9375058 162.774998,25.5312562 C162.774998,25.1250066 162.806248,24.7500069 162.868748,24.3750073 C163.087498,22.7187589 163.556248,21.1875103 164.274997,19.8125116 C165.024996,18.4375129 166.118745,17.312514 167.212494,16.6562646 C167.743744,16.312515 168.337493,16.0937652 169.056242,16.0000153 C169.337492,15.9687653 169.587492,15.9375153 169.868742,15.9375153 C170.149991,15.9375153 170.431241,15.9687653 170.712491,16.0000153 C171.30624,16.0625152 171.83749,16.1875151 172.368739,16.3437649 C173.087489,15.8750154 174.056238,16.0937652 174.774987,16.5000148 C176.056236,17.2500141 176.462485,18.5937628 176.681235,19.9687615 L176.774985,21.0937604 C176.806235,21.50001 176.837485,21.8437597 176.868735,22.1875094 C176.962485,23.2500083 176.993735,24.3125073 176.993735,25.4062563 L176.993735,25.5937561 C176.993735,26.750005 176.962485,27.8750039 176.899985,29.0000029 Z M170.649991,20.4062611 C170.462491,20.2500112 170.274991,20.1562613 170.056241,20.1562613 C169.462492,20.1562613 168.181243,21.7812597 167.649994,22.6875089 C167.368744,23.1562584 167.212494,23.7500079 167.181244,24.4062572 C167.149994,24.5000072 167.149994,24.5625071 167.181244,24.625007 C167.181244,25.750006 167.712494,26.8125049 168.868743,26.9062549 L168.962493,26.9062549 C171.43124,26.9062549 172.681239,22.0937594 170.649991,20.4062611 Z" id="Cheung"></path>
                </g>
            </g>
        </g>
    </g>
</svg>