<svg width="132" height="23" viewBox="0 0 132 23" fill="none" xmlns="http://www.w3.org/2000/svg">
<path fill-rule="evenodd" clip-rule="evenodd" d="M11.6731 15.4687C11.6028 16.0547 11.1106 16.6406 10.5246 16.9219C9.96213 17.2031 9.00119 16.9453 8.53244 16.6406C8.27463 16.4297 8.04025 16.1015 7.87619 15.7031C7.31369 14.1562 6.42307 12.2109 5.86057 11.3906C5.36838 10.6172 4.92307 10.8281 5.01682 11.8359C5.22776 14.1562 5.81369 14.7187 4.89963 16.125C4.71213 16.4765 4.52463 16.664 4.43088 16.7578C4.03245 17.25 3.5637 17.4609 3.11838 17.4844C3.07151 17.5078 3.02463 17.5078 2.97776 17.5078C2.2512 17.5078 1.47776 16.9687 0.985574 16.4765C-0.28005 14.9062 0.165262 13.875 0.0012 8.8828C0.0012 7.38281 -0.0456749 5.53125 0.446512 3.84375C0.704324 3 1.21995 2.0625 1.99339 1.03125C2.6262 0.445312 3.65745 0.0937499 4.75901 0.0234375C4.8762 2.23517e-08 5.01682 0 5.13401 0C5.86057 0 6.75119 0.117187 7.43088 0.515625C8.76682 1.26562 10.2903 2.625 10.4778 4.24218C10.5949 5.20312 10.4074 5.46093 10.0793 6.46874C10.0793 6.49218 10.0793 6.49218 10.0559 6.51562C9.75119 7.17187 9.259 7.75781 8.71994 8.29687C10.2903 10.6641 11.6731 13.4531 11.6731 15.4687ZM6.28244 3.75C6.09494 3.58593 5.88401 3.46875 5.62619 3.375C5.55588 3.35156 5.46213 3.32812 5.39182 3.32812C4.05588 3.32812 3.23557 5.0625 4.1262 6.23437C4.29026 6.49218 4.64182 6.63281 5.13401 6.70312H5.34494C6.28244 6.70312 6.77463 5.92968 6.77463 4.94531C6.77463 4.54687 6.65744 4.10156 6.28244 3.75ZM13.8143 6.96093C13.9784 5.83593 15.1034 5.08593 16.2987 5.29687C17.3299 5.50781 17.9393 6.42187 17.9159 7.38281L17.9393 8.15624C17.9159 9.18749 17.9159 10.7344 18.0096 12.2109C18.1034 13.6875 18.4315 13.8281 19.4393 13.9219C20.4706 14.0156 20.5643 13.4531 20.5643 12.3047C20.5878 11.7187 20.5643 11.0859 20.5409 10.3828C20.494 7.14843 20.0956 5.22656 22.8378 5.22656C23.9393 5.22656 24.3846 6.32812 24.4784 7.35937L24.5721 8.60155L24.5487 9.86718C24.4784 11.1797 24.3846 13.0781 24.2206 14.9297C24.0331 16.7344 24.0799 16.8515 23.0487 17.0625C21.0096 17.4844 18.4784 17.4844 16.6503 17.1797C14.7518 16.8984 13.9549 14.1094 13.744 11.4844C13.6971 10.8516 13.6737 10.2422 13.6737 9.6328V8.95312C13.6971 8.13281 13.744 7.47656 13.8143 6.96093ZM36.3228 13.8047C35.8774 15.1875 35.4087 16.1015 34.9165 16.5469C34.4243 16.9922 33.9087 17.2265 33.3228 17.2734C33.0181 17.2969 32.7134 17.2969 32.3853 17.2734C32.0337 17.25 31.6821 17.25 31.3306 17.2734C30.7446 17.2734 30.1353 17.2969 29.4556 17.3437H29.2681C28.0728 17.3437 27.0415 16.4531 26.9712 14.9531C26.9478 14.2031 26.9478 13.5469 26.9243 12.9609C26.9009 12.0937 26.8775 11.2266 26.9009 10.3594C26.9243 9.49218 26.9243 8.64843 26.9243 7.78124V6.46874C26.9243 5.625 26.9009 4.78125 26.8306 3.96093C26.8071 3.5625 26.8071 3.14062 26.8071 2.74219C26.8071 2.17969 26.9478 1.59375 27.2525 1.10156C27.6275 0.539062 28.1665 0.210937 28.7524 0.117187C28.8931 0.0937499 29.0337 0.0703125 29.1743 0.0703125C29.9478 0.0703125 30.7681 0.445312 31.2134 1.57031C31.6587 2.71875 31.4712 4.40625 31.4712 5.99999C32.3384 5.64843 33.6978 5.71875 34.5181 6.18749C36.0884 6.96093 36.7446 8.64843 36.7446 10.5937V10.7109C36.7446 11.6719 36.604 12.75 36.3228 13.8047ZM33.6509 10.7344C33.5806 10.1016 33.3228 9.67968 32.9478 9.39843C32.6196 9.14062 32.2681 8.97655 31.9165 8.92968C31.5649 8.85937 31.354 8.83593 31.3071 8.83593H31.2837C30.4399 8.83593 30.1587 10.0781 30.1587 11.0156C30.1587 11.1797 30.1587 11.3203 30.1821 11.4844C30.2759 12.3516 30.5571 13.2187 31.0493 13.6172C31.2134 13.7344 31.3774 13.8281 31.5884 13.8515C31.6353 13.875 31.6821 13.875 31.729 13.875C31.8931 13.875 32.0571 13.8281 32.2212 13.7578C33.6509 13.1719 33.6509 11.6953 33.6509 10.8281V10.7344ZM48.6593 8.92968C48.7296 9.6328 48.7999 13.8516 48.7765 14.5781C48.6828 17.1562 48.6593 18.7734 46.7374 20.6484C45.1437 22.2187 42.7062 23.1328 40.6906 21.7734C39.6828 21.0937 38.7921 20.039 40.1515 19.1719C40.7609 18.7969 41.4406 18.8203 42.0968 19.0781C43.0343 19.4765 44.4171 19.7109 44.9562 18.5156C45.1437 18.0703 44.9562 17.414 44.8624 17.1094C44.089 17.6015 42.7296 17.0859 41.9328 16.875C38.5812 16.0078 38.3234 9.72655 39.0968 7.33593C39.4249 6.30468 40.0109 5.53125 41.1593 5.74218C42.1203 5.92968 42.7296 6.79687 42.7062 7.73437C42.7531 7.78124 42.1437 12.9609 42.7765 13.6406C43.2218 14.0625 44.9796 14.1094 45.2374 13.7109C45.6593 13.1016 44.5343 7.00781 45.3546 6.23437C46.3624 5.32031 47.4406 5.34375 48.214 6.77343C48.5421 7.35937 48.6124 8.29687 48.6593 8.92968Z" fill="#33374F"/>
<path fill-rule="evenodd" clip-rule="evenodd" d="M67.1262 9.56249C67.923 9.04687 69.0246 9.25781 69.634 9.98437C70.3605 10.8516 70.4543 12.0703 70.1496 13.125C69.5637 15.3047 67.4777 16.5703 65.3449 17.0625C63.0246 17.6015 60.4465 17.5547 58.4074 16.2891C57.4699 15.7031 56.6731 14.8828 56.2512 13.8516C55.7824 12.6562 55.7121 11.3437 55.8293 10.1016L55.8996 9.53906C56.3215 6.49218 57.8449 3.79687 60.3762 2.0625C62.5559 0.585937 65.6965 -0.351562 68.0871 1.21875C68.9309 1.75781 69.6574 2.76562 69.6105 3.84375C69.5637 4.875 68.8605 5.67187 67.923 6C66.8449 6.35156 65.673 5.34375 64.5715 5.32031C63.3996 5.29687 61.4074 6.28125 60.8449 7.49999C60.3527 8.57812 60.0246 11.1328 60.7043 12.0937C61.4074 13.0781 64.0793 13.5469 65.1574 12.5625C65.8605 11.9297 66.3059 10.0781 67.1262 9.56249ZM81.9471 16.3828C81.8299 17.2969 80.7752 17.1797 80.2127 17.25C79.9549 17.2734 79.6502 17.2734 79.2987 17.2734C79.0409 17.2734 78.8768 17.1328 78.7596 16.9219C78.5955 16.6406 78.5487 16.1953 78.5721 15.7031L78.7596 13.4531C78.8534 12.4453 78.6424 11.2031 78.2674 10.2656C78.1971 10.0547 78.0799 9.93749 77.9159 9.89062C77.6112 9.77343 76.9549 9.44531 76.8377 9.89062C76.7674 10.125 76.4862 11.9297 76.4627 12.2344C76.4627 13.6875 76.2987 15.3047 75.9706 16.1953C75.6893 16.9219 75.2206 16.9922 74.4706 17.25C74.2831 17.2969 74.0956 17.3203 73.9081 17.3203C73.7674 17.3203 73.6268 17.2969 73.4862 17.2734C72.8065 17.1094 72.4549 16.6172 72.3846 16.1719C72.2674 15.3516 72.0799 11.1328 72.0799 9.74999C72.0799 7.94531 72.1268 5.34375 72.5018 2.97656C72.6659 2.10937 72.7596 0.984374 73.5331 0.398437C73.8846 0.140625 74.2831 0.0234375 74.7284 0.0234375H74.9862C76.0174 0.140625 76.2987 1.14844 76.4627 1.80469C76.7909 3.375 76.9315 4.64062 76.6971 6C77.8221 5.0625 78.619 5.0625 80.0955 5.4375C81.2909 5.74218 81.619 7.26562 81.9002 8.27343C82.369 10.0078 82.2752 14.2266 81.9471 16.3828ZM87.2524 12.9844C87.3227 13.5703 87.5337 14.2031 88.1196 14.3906C91.518 15.4922 90.8384 12.4687 92.5024 13.1016C93.1587 13.3125 93.5571 13.8984 93.6509 14.5547C93.8852 16.125 92.5024 16.8047 91.1196 17.25C89.479 17.7656 87.7446 17.4375 86.4556 16.5469C85.7993 16.1484 85.1899 15.6094 84.7915 14.9766C84.2993 14.2969 84.1118 13.5 84.0181 12.6797C83.9946 12.375 83.9946 12.0937 83.9946 11.7891C83.9946 10.6406 84.1352 9.18749 84.979 7.66406C85.7993 6.32812 87.0649 5.36718 88.6821 5.20312C89.643 4.99218 91.3071 5.53125 92.2681 6.1875C92.854 6.58593 93.5102 7.07812 94.0024 8.36718C94.2368 8.92968 94.354 9.65624 94.2134 10.1719C94.1196 10.8047 93.7212 11.5781 92.9477 11.7891C92.6665 11.8828 88.9868 12.1172 87.9556 12.0703C87.8384 12.0703 87.6977 12.0937 87.6274 12.1172C87.1821 12.3281 87.229 12.6094 87.2524 12.9844ZM88.9634 9.70312C89.6196 9.70312 90.2759 9.70312 90.9321 9.60937C91.3071 9.53906 91.4946 9.39843 91.4946 9.16406C91.4946 9.11718 91.4712 9.04687 91.4477 8.97656C91.2602 8.29687 90.768 7.96874 90.1352 7.78124C89.8306 7.68749 89.5493 7.64062 89.2681 7.64062C88.4712 7.64062 87.6743 8.43749 87.6743 8.99999C87.6743 9.30468 87.8852 9.72656 88.3306 9.72656H88.354C88.5884 9.72656 88.7993 9.72656 88.9634 9.70312ZM96.1906 6.96093C96.3546 5.83593 97.4796 5.08593 98.6749 5.29687C99.7062 5.50781 100.316 6.42187 100.292 7.38281L100.316 8.15624C100.292 9.18749 100.292 10.7344 100.386 12.2109C100.48 13.6875 100.808 13.8281 101.816 13.9219C102.847 14.0156 102.941 13.4531 102.941 12.3047C102.964 11.7187 102.941 11.0859 102.917 10.3828C102.87 7.14843 102.472 5.22656 105.214 5.22656C106.316 5.22656 106.761 6.32812 106.855 7.35937L106.948 8.60156L106.925 9.86718C106.855 11.1797 106.761 13.0781 106.597 14.9297C106.409 16.7344 106.456 16.8515 105.425 17.0625C103.386 17.4844 100.855 17.4844 99.0265 17.1797C97.128 16.8984 96.3312 14.1094 96.1202 11.4844C96.0734 10.8516 96.0499 10.2422 96.0499 9.63281V8.95312C96.0734 8.13281 96.1202 7.47656 96.1906 6.96093ZM119.238 15.4219C119.168 15.6797 119.121 16.0547 119.051 16.5234C118.98 16.9922 118.769 17.25 118.394 17.2734C117.949 17.2969 117.597 17.3437 117.34 17.3672C117.058 17.3906 116.754 17.414 116.402 17.3906C116.144 17.3906 116.004 17.25 115.886 17.0625C115.722 16.7812 115.676 16.3125 115.676 15.8437C115.676 15.3984 115.699 14.9766 115.769 14.5312C115.84 14.0859 115.863 13.7812 115.886 13.6172C115.91 12.6094 115.769 10.8984 115.394 9.96093C115.23 9.56249 114.035 9.37499 113.566 9.37499C113.261 9.37499 113.004 9.70312 113.285 13.2422C113.261 13.7344 113.261 14.25 113.308 14.7891C113.379 15.8437 113.004 16.8047 112.511 17.0156C111.785 17.3906 111.246 17.4609 110.636 17.3672C109.535 17.1797 109.465 16.1484 109.418 14.7891L109.23 10.8984C109.23 9.72656 109.136 9.04687 109.23 7.92187C109.324 7.07812 109.441 5.50781 111.222 5.34375C112.793 5.27343 114.34 5.29687 115.769 5.53125C116.824 5.69531 117.597 5.71875 118.254 6.84375C118.91 7.96874 119.121 8.95312 119.308 10.0781C119.402 10.6406 119.426 14.4609 119.238 15.4219ZM131.739 15.1406C131.668 16.2422 131.668 17.1797 131.504 18.2812C131.411 18.914 131.246 19.9453 130.871 20.8828C130.59 21.5625 130.075 22.1719 129.395 22.4531C128.668 22.7578 127.895 22.875 127.145 22.875H126.7C125.692 22.875 123.864 22.9687 123.207 21.8437C122.809 21.164 122.903 20.625 123.114 19.9453C123.301 19.3594 123.653 18.8203 124.379 18.914C124.778 18.9609 125.223 19.125 125.715 19.4297C126.676 20.0156 127.754 20.1562 128.082 19.125C128.411 18.0937 128.434 17.789 128.434 16.6406C127.567 17.1328 126.512 17.414 125.481 17.3437C123.207 17.1562 121.567 15.5859 121.215 13.5C121.168 13.1719 121.145 12.8437 121.145 12.5391C121.145 12.2344 121.168 11.9531 121.215 11.6719C121.379 10.4297 121.731 9.28124 122.27 8.24999C122.832 7.21874 123.653 6.375 124.473 5.88281C124.871 5.625 125.317 5.46093 125.856 5.39062C126.067 5.36718 126.254 5.34375 126.465 5.34375C126.676 5.34375 126.887 5.36718 127.098 5.39062C127.543 5.4375 127.942 5.53125 128.34 5.64843C128.879 5.29687 129.606 5.46093 130.145 5.76562C131.106 6.32812 131.411 7.33593 131.575 8.36718L131.645 9.21093C131.668 9.51562 131.692 9.77343 131.715 10.0312C131.786 10.8281 131.809 11.625 131.809 12.4453V12.5859C131.809 13.4531 131.786 14.2969 131.739 15.1406ZM127.051 8.69531C126.911 8.57812 126.77 8.50781 126.606 8.50781C126.161 8.50781 125.2 9.72656 124.801 10.4062C124.59 10.7578 124.473 11.2031 124.45 11.6953C124.426 11.7656 124.426 11.8125 124.45 11.8594C124.45 12.7031 124.848 13.5 125.715 13.5703H125.786C127.637 13.5703 128.575 9.96093 127.051 8.69531Z" fill="#33374F"/>
</svg>
